<?xml version="1.0" encoding="UTF-8"?>
<svg version="1.1" xmlns="http://www.w3.org/2000/svg" width="512" height="512">
<path d="M0 0 C3.34552795 2.03260274 4.7477975 3.35787917 6.1875 7.0234375 C6.5896875 8.68246094 6.5896875 8.68246094 7 10.375 C8.91601236 17.2113321 10.698456 20.7733773 16.6875 24.8125 C22.92437101 27.04835942 28.52971839 27.95061265 34.8125 25.4375 C39.01452957 23.3142914 41.17723447 20.70992041 44 17 C47.05869153 14.67961332 50.11825078 14.73451837 53.90234375 14.63671875 C56 15 56 15 58.2824707 16.56835938 C61.62026764 18.32676754 62.94324801 18.07826991 66.578125 17.26953125 C68.19847656 16.93018555 68.19847656 16.93018555 69.8515625 16.58398438 C70.97304687 16.32939453 72.09453125 16.07480469 73.25 15.8125 C90.8547099 11.96015041 107.70752711 10.61910806 125.6875 10.6875 C126.65767059 10.68899048 127.62784119 10.69048096 128.62741089 10.6920166 C141.82155952 10.72847016 154.79834735 10.96894671 167.78173828 13.56005859 C170.00361554 14.00071706 172.22939429 14.37343949 174.46484375 14.73828125 C206.29146533 20.28563004 238.85194067 34.11899438 265 53 C265.68868164 53.49242187 266.37736328 53.98484375 267.08691406 54.4921875 C275.50302769 60.54595066 283.40904217 66.92972159 291 74 C292.37075183 75.19240122 293.74557863 76.38013883 295.125 77.5625 C301.99569648 83.57952277 308.00815 90.03168468 313.71875 97.16015625 C315.19592633 98.99903843 316.6947954 100.82078823 318.21875 102.62109375 C328.92784116 115.30985845 337.30595286 129.33039165 345 144 C345.57016846 145.07314453 345.57016846 145.07314453 346.15185547 146.16796875 C363.88816737 179.96314527 371.46062752 217.70719631 371.3125 255.625 C371.30976578 257.07883591 371.30976578 257.07883591 371.30697632 258.56204224 C371.2452094 278.07455409 369.62285182 296.37719279 364.53833008 315.26928711 C362.98243105 321.17208535 362.61468769 324.47073051 365.63671875 329.98828125 C366.65185547 331.63376953 366.65185547 331.63376953 367.6875 333.3125 C372.1626188 340.89265967 375.4057562 348.59504021 378 357 C378.31759277 358.01247803 378.31759277 358.01247803 378.64160156 359.04541016 C387.68762853 389.40192696 382.50722754 423.5138751 367.8671875 451.13671875 C362.93838191 459.95270383 356.79811108 467.56580835 350 475 C349.28328125 475.79921875 348.5665625 476.5984375 347.828125 477.421875 C337.14368876 488.74898409 324.12754702 496.72026642 310 503 C308.40091797 503.72316406 308.40091797 503.72316406 306.76953125 504.4609375 C277.40194593 516.74395797 243.08587313 514.9627286 213.95678711 503.15673828 C208.15663901 500.68541608 202.99045398 497.79739993 197.8984375 494.0546875 C193.35443988 492.40121128 189.57522748 493.83285013 185 495 C183.41712075 495.34157545 181.83248704 495.67513568 180.24609375 496 C179.45267578 496.165 178.65925781 496.33 177.84179688 496.5 C177.04837891 496.665 176.25496094 496.83 175.4375 497 C174.67115234 497.165 173.90480469 497.33 173.11523438 497.5 C157.55430948 500.69967612 142.15291668 501.37425898 126.3125 501.3125 C125.3413324 501.31067719 124.37016479 501.30885437 123.36956787 501.30697632 C109.3674797 501.26271428 95.75135725 500.8487177 82 498 C81.15099121 497.83902832 80.30198242 497.67805664 79.42724609 497.51220703 C25.53992185 487.23620327 -27.37082755 458.06119733 -61.82421875 414.734375 C-63.25863415 412.93169855 -64.71930634 411.14956347 -66.20703125 409.390625 C-76.92449607 396.70234791 -85.30381647 382.67368163 -93 368 C-93.3801123 367.28457031 -93.76022461 366.56914062 -94.15185547 365.83203125 C-111.88914879 332.03498472 -119.45699417 294.29416755 -119.3125 256.375 C-119.31100952 255.4061084 -119.30951904 254.4372168 -119.3079834 253.43896484 C-119.26273651 237.07174539 -118.24317631 221.39701653 -114.8046875 205.3671875 C-114.51126465 203.98273438 -114.51126465 203.98273438 -114.21191406 202.5703125 C-113.83366679 200.83327011 -113.43356035 199.10077331 -113.00683594 197.375 C-111.87517521 192.68181581 -111.87517521 192.68181581 -113.37890625 188.19921875 C-113.91386719 187.47347656 -114.44882813 186.74773437 -115 186 C-115.59703517 182.5526034 -115.33960112 179.18860391 -114.375 175.8125 C-113 174 -113 174 -110.125 171.8125 C-106.17765207 168.63134491 -104.24590397 164.88301492 -103 160 C-102.58396946 153.3536584 -104.1429335 148.3570368 -108 143 C-112.56363568 138.75605859 -117.01166801 137.69652182 -122.94140625 136.22265625 C-126.6148488 134.75421753 -127.95925531 133.36209018 -130 130 C-130.53125 127.5 -130.53125 127.5 -130.5 125 C-130.5103125 124.175 -130.520625 123.35 -130.53125 122.5 C-129.80047845 119.06107505 -128.50779694 117.44986103 -126 115 C-122.9765625 113.8125 -122.9765625 113.8125 -119.625 113 C-112.7886679 111.08398764 -109.2266227 109.301544 -105.1875 103.3125 C-102.95164058 97.07562899 -102.04938735 91.47028161 -104.5625 85.1875 C-106.6857086 80.98547043 -109.29007959 78.82276553 -113 76 C-115.67821164 72.46963011 -115.5594796 68.26391267 -115 64 C-113.36312815 60.41447119 -112.31027417 59.20684945 -109 57 C-106.625 56.76953125 -106.625 56.76953125 -104 56.8125 C-103.13375 56.81894531 -102.2675 56.82539062 -101.375 56.83203125 C-99 57 -99 57 -96 58 C-89.24291614 58.73211743 -83.51201974 58.21363287 -78 54 C-73.79690014 49.39959219 -71.85628441 45.28843851 -71.875 39 C-71.87242188 38.13375 -71.86984375 37.2675 -71.8671875 36.375 C-71.90405795 33.84988305 -71.90405795 33.84988305 -73 31 C-73.61963036 25.77740127 -73.9313284 22.20092346 -70.625 17.9375 C-66.39603115 14.81611823 -63.1631174 14.61869193 -58 15 C-54.71855174 15.93755665 -53.92766243 17.09507224 -51.8125 19.875 C-48.62839214 23.82601189 -44.88350899 25.74424055 -40 27 C-33.82081648 27.47826498 -28.73843071 26.07382129 -23.68359375 22.50390625 C-19.37618393 18.65621998 -18.00325866 14.19555435 -16.5625 8.8125 C-15.64849282 5.65195937 -15.00527104 4.0067086 -12.9375 1.375 C-8.70656835 -0.60543609 -4.58092452 -0.97344646 0 0 Z " fill="#41416B" transform="translate(130,0)"/>
<path d="M0 0 C3.34552795 2.03260274 4.7477975 3.35787917 6.1875 7.0234375 C6.5896875 8.68246094 6.5896875 8.68246094 7 10.375 C8.91601236 17.2113321 10.698456 20.7733773 16.6875 24.8125 C22.92437101 27.04835942 28.52971839 27.95061265 34.8125 25.4375 C39.01452957 23.3142914 41.17723447 20.70992041 44 17 C47.53718772 14.31661621 51.72956757 14.45664478 56 15 C59.14226465 16.29789192 60.53537592 17.28194461 62.375 20.125 C63.36440174 24.67624799 63.10795715 29.78408571 61 34 C60.13943778 40.50339165 60.96673549 45.43897593 64.43359375 51.01953125 C67.54755902 54.95663946 71.21651665 57.40550555 76 59 C81.36548411 59.26387627 84.90169992 58.73559152 90 57 C94.32580209 56.5365212 96.43913921 56.70369619 100.3125 58.75 C103.90681302 61.75919229 104.82095839 63.31700882 105.3125 67.9375 C104.94521047 71.5369374 104.20151905 73.13802523 102 76 C101.01 76.804375 100.02 77.60875 99 78.4375 C95.62002294 81.32456373 94.35901728 82.77194625 93 87 C92.66539808 91.35513613 92.53761778 95.65240618 93 100 C93.66 100.66 94.32 101.32 95 102 C95.41958984 101.23816406 95.41958984 101.23816406 95.84765625 100.4609375 C99.97970676 93.36603405 104.86665945 88.09920487 112.8125 85.4609375 C117.90164164 84.38858265 123.06558443 84.35519481 128 86 C128.061875 84.700625 128.12375 83.40125 128.1875 82.0625 C129.02942409 74.52075742 133.35543719 67.06803977 139 62 C150.47088001 53.6735113 160.10548665 51.73920754 174 53 C184.55676621 55.23444861 192.66712916 62.48374175 198.4921875 71.2890625 C200.92149396 75.65677929 202.5405344 80.23180805 204 85 C204.98226562 84.89558594 204.98226562 84.89558594 205.984375 84.7890625 C214.91451759 84.25930828 222.1636282 86.83005738 228.984375 92.7109375 C234.92911063 99.21483143 236.33623716 105.5892712 236.203125 114.23046875 C236.02744595 116.62578507 235.67920845 118.70493273 235 121 C235.85271484 121.02126953 235.85271484 121.02126953 236.72265625 121.04296875 C243.98891612 121.49180283 248.07755299 123.79473553 252.9375 129.125 C254.83918563 134.27073759 254.94419806 139.81704303 253.37890625 145.09375 C250.95377874 150.00867508 246.86763321 152.72045733 242 155 C239.04392088 155.65387289 236.21684397 155.69301392 233.19726562 155.65942383 C232.35729034 155.66990753 231.51731506 155.68039124 230.65188599 155.69119263 C227.90295664 155.71976546 225.15530016 155.71367225 222.40625 155.70703125 C220.48952673 155.72015709 218.57281726 155.73546402 216.65612793 155.75285339 C211.63212753 155.79261259 206.60848974 155.802888 201.58435059 155.80688477 C196.44935164 155.81623332 191.31456423 155.85365767 186.1796875 155.88867188 C176.11980147 155.95315528 166.06007463 155.9864712 156 156 C156.54487061 156.73750488 157.08974121 157.47500977 157.65112305 158.23486328 C158.36824463 159.21181152 159.08536621 160.18875977 159.82421875 161.1953125 C160.53408936 162.15969238 161.24395996 163.12407227 161.9753418 164.11767578 C171.13916199 177.16338435 173.61322781 192.3376622 172 208 C171.14991452 212.8148284 169.62742893 217.39770098 168 222 C167.41589589 223.79141553 166.83245428 225.58304737 166.25 227.375 C165.8375 228.57125 165.425 229.7675 165 231 C167.64 232.32 170.28 233.64 173 235 C170.19560559 237.80439441 166.78036764 238.98374576 163.1875 240.52734375 C162.39532074 240.87195145 161.60314148 241.21655914 160.78695679 241.5716095 C158.19331374 242.69827122 155.59672384 243.81795937 153 244.9375 C151.20510694 245.71551138 149.41034848 246.49383334 147.61572266 247.27246094 C137.89132503 251.48578364 128.14635599 255.64674816 118.375 259.75 C99.66662397 267.61237569 80.90242555 275.62165916 62.90185547 285.01220703 C60.81815028 286.0944498 58.72379528 287.15442285 56.62890625 288.21484375 C26.0792375 303.82261386 -1.34214196 323.54001198 -28 345 C-28.98871094 345.79148437 -29.97742188 346.58296875 -30.99609375 347.3984375 C-36.65850919 351.98272904 -42.10302148 356.74771596 -47.46484375 361.6796875 C-49.53325758 363.57281203 -51.62405876 365.42251704 -53.75 367.25 C-58.44004256 371.31858765 -62.94226678 375.59076016 -67.45800781 379.85058594 C-71.54226674 383.69017565 -75.71924723 387.38036735 -80 391 C-104.93336886 348.83536198 -119.50038676 305.68155292 -119.3125 256.375 C-119.31100952 255.4061084 -119.30951904 254.4372168 -119.3079834 253.43896484 C-119.26273651 237.07174539 -118.24317631 221.39701653 -114.8046875 205.3671875 C-114.51126465 203.98273438 -114.51126465 203.98273438 -114.21191406 202.5703125 C-113.83366679 200.83327011 -113.43356035 199.10077331 -113.00683594 197.375 C-111.87517521 192.68181581 -111.87517521 192.68181581 -113.37890625 188.19921875 C-113.91386719 187.47347656 -114.44882813 186.74773437 -115 186 C-115.59703517 182.5526034 -115.33960112 179.18860391 -114.375 175.8125 C-113 174 -113 174 -110.125 171.8125 C-106.17765207 168.63134491 -104.24590397 164.88301492 -103 160 C-102.58396946 153.3536584 -104.1429335 148.3570368 -108 143 C-112.56363568 138.75605859 -117.01166801 137.69652182 -122.94140625 136.22265625 C-126.6148488 134.75421753 -127.95925531 133.36209018 -130 130 C-130.53125 127.5 -130.53125 127.5 -130.5 125 C-130.5103125 124.175 -130.520625 123.35 -130.53125 122.5 C-129.80047845 119.06107505 -128.50779694 117.44986103 -126 115 C-122.9765625 113.8125 -122.9765625 113.8125 -119.625 113 C-112.7886679 111.08398764 -109.2266227 109.301544 -105.1875 103.3125 C-102.95164058 97.07562899 -102.04938735 91.47028161 -104.5625 85.1875 C-106.6857086 80.98547043 -109.29007959 78.82276553 -113 76 C-115.67821164 72.46963011 -115.5594796 68.26391267 -115 64 C-113.36312815 60.41447119 -112.31027417 59.20684945 -109 57 C-106.625 56.76953125 -106.625 56.76953125 -104 56.8125 C-103.13375 56.81894531 -102.2675 56.82539062 -101.375 56.83203125 C-99 57 -99 57 -96 58 C-89.24291614 58.73211743 -83.51201974 58.21363287 -78 54 C-73.79690014 49.39959219 -71.85628441 45.28843851 -71.875 39 C-71.87242188 38.13375 -71.86984375 37.2675 -71.8671875 36.375 C-71.90405795 33.84988305 -71.90405795 33.84988305 -73 31 C-73.61963036 25.77740127 -73.9313284 22.20092346 -70.625 17.9375 C-66.39603115 14.81611823 -63.1631174 14.61869193 -58 15 C-54.71855174 15.93755665 -53.92766243 17.09507224 -51.8125 19.875 C-48.62839214 23.82601189 -44.88350899 25.74424055 -40 27 C-33.82081648 27.47826498 -28.73843071 26.07382129 -23.68359375 22.50390625 C-19.37618393 18.65621998 -18.00325866 14.19555435 -16.5625 8.8125 C-15.64849282 5.65195937 -15.00527104 4.0067086 -12.9375 1.375 C-8.70656835 -0.60543609 -4.58092452 -0.97344646 0 0 Z " fill="#B7E8F9" transform="translate(130,0)"/>
<path d="M0 0 C24.15498238 19.70611843 43.13876726 45.84213088 47.30859375 77.42382812 C50.51708686 111.35809904 44.48356633 144.63631196 22.49829102 171.60229492 C20.25746783 174.26106329 17.93652652 176.83218208 15.58984375 179.3984375 C14.873125 180.19765625 14.15640625 180.996875 13.41796875 181.8203125 C2.73353251 193.14742159 -10.28260923 201.11870392 -24.41015625 207.3984375 C-25.47621094 207.88054687 -26.54226563 208.36265625 -27.640625 208.859375 C-55.88635605 220.67317886 -89.57111093 219.66165889 -117.84765625 208.6484375 C-131.39644844 203.04388046 -142.64031168 195.26583653 -153.41015625 185.3984375 C-153.9299707 184.92390137 -154.44978516 184.44936523 -154.98535156 183.96044922 C-164.30211581 175.34171213 -172.25681579 165.54522358 -178.41015625 154.3984375 C-178.41015625 153.7384375 -178.41015625 153.0784375 -178.41015625 152.3984375 C-177.63414062 152.39432861 -176.858125 152.39021973 -176.05859375 152.38598633 C-172.50836501 152.35288828 -168.95981531 152.28222314 -165.41015625 152.2109375 C-163.57904297 152.20223633 -163.57904297 152.20223633 -161.7109375 152.19335938 C-154.42244849 152.0160718 -148.94713516 151.43399981 -143.41015625 146.3984375 C-139.56808674 141.35572127 -139.60258407 135.49606113 -140.41015625 129.3984375 C-142.18392234 125.57801823 -143.63043043 123.9242991 -147.09765625 121.5859375 C-151.19610567 120.11668205 -155.08525541 119.67715333 -159.41015625 119.3984375 C-159.25160156 118.69332031 -159.09304688 117.98820313 -158.9296875 117.26171875 C-157.59388661 109.89974843 -157.40735346 102.8438853 -161.14453125 96.21484375 C-165.83305304 89.48594674 -170.60416609 86.06630756 -178.41015625 83.3984375 C-182.80221784 82.94569576 -187.01590237 83.01571216 -191.41015625 83.3984375 C-191.62747776 77.4085135 -190.97145239 72.29920486 -189.41015625 66.5234375 C-189.1886792 65.70262695 -188.96720215 64.88181641 -188.73901367 64.03613281 C-182.89954131 43.43735956 -172.26539012 26.61434473 -157.41015625 11.3984375 C-156.75660156 10.68300781 -156.10304688 9.96757812 -155.4296875 9.23046875 C-145.37569372 -1.50951182 -132.68429776 -8.62387218 -119.41015625 -14.6015625 C-117.82654297 -15.32666016 -117.82654297 -15.32666016 -116.2109375 -16.06640625 C-79.17512707 -31.66791922 -31.61469035 -24.78765799 0 0 Z " fill="#FEF8E0" transform="translate(464.41015625,295.6015625)"/>
<path d="M0 0 C1.2084706 0.00092179 2.4169412 0.00184359 3.66203213 0.00279331 C4.66786765 0.00151167 4.66786765 0.00151167 5.69402307 0.00020415 C7.95734737 -0.00145254 10.22059873 0.00407376 12.48391628 0.00952244 C14.09980677 0.0098043 15.71569738 0.0096466 17.33158779 0.00907993 C21.73222579 0.0087919 26.13283678 0.01468954 30.53346848 0.02165389 C35.12725549 0.02788649 39.72104306 0.02849115 44.31483364 0.0296793 C53.0200511 0.03279289 61.72525607 0.04100665 70.43046802 0.05102879 C80.33840257 0.06218906 90.2463377 0.06770016 100.15427697 0.07272422 C120.54142609 0.08318925 140.92856396 0.10078923 161.31570339 0.12304783 C160.90763958 0.87097599 160.49957577 1.61890415 160.07914639 2.3894968 C159.54176342 3.37455204 159.00438046 4.35960728 158.45071316 5.37451267 C157.91889935 6.34931583 157.38708553 7.324119 156.83915615 8.32846165 C148.24977993 24.0846129 142.40685541 39.1765939 140.31570339 57.12304783 C141.30570339 56.79304783 142.29570339 56.46304783 143.31570339 56.12304783 C151.73755237 54.86056952 158.38912439 57.34945611 165.31570339 62.12304783 C170.12289886 66.88844159 173.95866938 72.17467168 174.58132839 79.06054783 C174.57617214 80.07117283 174.57101589 81.08179783 174.56570339 82.12304783 C174.57085964 83.13367283 174.57601589 84.14429783 174.58132839 85.18554783 C174.30933765 88.19344543 173.57891457 90.39611576 172.31570339 93.12304783 C172.88417995 93.07664158 173.45265652 93.03023533 174.03835964 92.98242283 C180.1098917 92.69861165 183.4119343 93.46925909 188.31570339 97.12304783 C191.78398306 100.76918799 192.60765802 103.6614148 192.81570339 108.56054783 C192.55501794 114.56445962 191.25118378 118.41040056 186.81375027 122.51098728 C180.36870692 127.17586155 174.01637392 126.69982638 166.31570339 126.43554783 C165.0640237 126.41298923 163.81234402 126.39043064 162.52273464 126.36718845 C159.45246972 126.30859561 156.38472578 126.22660184 153.31570339 126.12304783 C159.63006855 137.00554885 166.45437071 146.19877955 175.31570339 155.12304783 C175.97570339 155.82043064 176.63570339 156.51781345 177.31570339 157.23632908 C181.59408478 161.70288002 186.36431689 165.42915631 191.31570339 169.12304783 C186.16008245 174.27866877 175.25197659 174.69873797 168.31570339 176.12304783 C167.4794241 176.29545994 166.6431448 176.46787205 165.7815237 176.64550877 C138.56839298 181.91291958 106.44571564 181.7432746 79.31570339 176.12304783 C78.4666946 175.96207615 77.61768581 175.80110447 76.74294949 175.63525486 C21.01714681 165.0086638 -31.2781598 134.68050341 -66.68429661 90.12304783 C-68.24577416 88.24719626 -69.80826987 86.37219173 -71.37179661 84.49804783 C-75.14122611 79.90198905 -78.51836421 75.15129341 -81.68429661 70.12304783 C-80.01873909 65.79048999 -76.80994454 62.98751501 -73.55929661 59.81054783 C-72.67479832 58.93680515 -72.67479832 58.93680515 -71.77243137 58.04541111 C-68.20503426 54.54408597 -64.57430282 51.15521697 -60.76242161 47.91992283 C-58.60338934 46.05309041 -56.50871996 44.12400634 -54.41720676 42.18212986 C-49.25854998 37.39509195 -43.9889965 32.82694959 -38.50070286 28.41601658 C-36.0438329 26.41576323 -33.64230472 24.36452596 -31.24948215 22.28857517 C-22.98196879 15.141709 -14.19127852 8.74199494 -5.3356638 2.34716892 C-2.31226798 0.10599408 -2.31226798 0.10599408 0 0 Z " fill="#41416B" transform="translate(132.6842966079712,321.8769521713257)"/>
<path d="M0 0 C3.34552795 2.03260274 4.7477975 3.35787917 6.1875 7.0234375 C6.5896875 8.68246094 6.5896875 8.68246094 7 10.375 C8.91601236 17.2113321 10.698456 20.7733773 16.6875 24.8125 C22.92437101 27.04835942 28.52971839 27.95061265 34.8125 25.4375 C39.01452957 23.3142914 41.17723447 20.70992041 44 17 C47.53718772 14.31661621 51.72956757 14.45664478 56 15 C59.14226465 16.29789192 60.53537592 17.28194461 62.375 20.125 C63.36440174 24.67624799 63.10795715 29.78408571 61 34 C60.13943778 40.50339165 60.96673549 45.43897593 64.43359375 51.01953125 C67.54755902 54.95663946 71.21651665 57.40550555 76 59 C81.36548411 59.26387627 84.90169992 58.73559152 90 57 C94.32580209 56.5365212 96.43913921 56.70369619 100.3125 58.75 C103.90681302 61.75919229 104.82095839 63.31700882 105.3125 67.9375 C104.94521047 71.5369374 104.20151905 73.13802523 102 76 C101.01 76.804375 100.02 77.60875 99 78.4375 C94.85553076 81.97756748 93.32486753 84.51591192 92.61328125 89.95703125 C92.25049283 96.88225908 92.90824729 101.66853752 97.23046875 107.1953125 C101.53268432 111.58300255 106.24428188 113.156038 112.13671875 114.4375 C115.00476887 115.30332645 116.87785052 116.94215808 119 119 C120.5547669 122.10953379 120.28644437 124.56266761 120 128 C116.92307692 133.53846154 116.92307692 133.53846154 114 135 C112.48694482 135.16149877 110.96845374 135.27368441 109.44921875 135.359375 C89.7477454 136.66199453 74.40374687 141.46248341 60.35546875 156.203125 C51.37179668 166.87030444 47.08904838 178.61412367 44 192 C43.44054687 191.9278125 42.88109375 191.855625 42.3046875 191.78125 C22.54268302 189.49368678 4.66972203 192.24340352 -11.6875 204.25 C-17.22789114 208.79130421 -23.25186842 214.25325829 -26.30859375 220.8046875 C-27.14583984 221.89136719 -27.14583984 221.89136719 -28 223 C-31.29296875 223.3125 -31.29296875 223.3125 -35.1875 223 C-40.88361813 222.73105825 -44.80064294 223.03094103 -49.42578125 226.5625 C-51.69858313 228.63791214 -53.88488042 230.76401645 -56 233 C-59.53430656 235.35620437 -60.83571287 235.48991613 -65 235 C-68.03522895 233.36564595 -70.28352297 231.944447 -72.375 229.1875 C-73.58365697 224.9572006 -73.4116381 221.20918693 -72 217.0625 C-70.18450054 211.50253291 -70.27447109 207.00590911 -72.6875 201.75 C-76.02009118 195.83696496 -80.38504673 193.46289277 -86.7265625 191.53515625 C-92.16016517 190.25611232 -95.96477697 190.93426747 -101 193 C-105.83924203 193.51481298 -108.89588247 192.61171115 -113 190 C-115.78709373 186.57947588 -115.40045977 182.20482755 -115 178 C-114.06244335 174.71855174 -112.90492776 173.92766243 -110.125 171.8125 C-106.17765207 168.63134491 -104.24590397 164.88301492 -103 160 C-102.58396946 153.3536584 -104.1429335 148.3570368 -108 143 C-112.56363568 138.75605859 -117.01166801 137.69652182 -122.94140625 136.22265625 C-126.6148488 134.75421753 -127.95925531 133.36209018 -130 130 C-130.53125 127.5 -130.53125 127.5 -130.5 125 C-130.5103125 124.175 -130.520625 123.35 -130.53125 122.5 C-129.80047845 119.06107505 -128.50779694 117.44986103 -126 115 C-122.9765625 113.8125 -122.9765625 113.8125 -119.625 113 C-112.7886679 111.08398764 -109.2266227 109.301544 -105.1875 103.3125 C-102.95164058 97.07562899 -102.04938735 91.47028161 -104.5625 85.1875 C-106.6857086 80.98547043 -109.29007959 78.82276553 -113 76 C-115.67821164 72.46963011 -115.5594796 68.26391267 -115 64 C-113.36312815 60.41447119 -112.31027417 59.20684945 -109 57 C-106.625 56.76953125 -106.625 56.76953125 -104 56.8125 C-103.13375 56.81894531 -102.2675 56.82539062 -101.375 56.83203125 C-99 57 -99 57 -96 58 C-89.24291614 58.73211743 -83.51201974 58.21363287 -78 54 C-73.79690014 49.39959219 -71.85628441 45.28843851 -71.875 39 C-71.87242188 38.13375 -71.86984375 37.2675 -71.8671875 36.375 C-71.90405795 33.84988305 -71.90405795 33.84988305 -73 31 C-73.61963036 25.77740127 -73.9313284 22.20092346 -70.625 17.9375 C-66.39603115 14.81611823 -63.1631174 14.61869193 -58 15 C-54.71855174 15.93755665 -53.92766243 17.09507224 -51.8125 19.875 C-48.62839214 23.82601189 -44.88350899 25.74424055 -40 27 C-33.82081648 27.47826498 -28.73843071 26.07382129 -23.68359375 22.50390625 C-19.37618393 18.65621998 -18.00325866 14.19555435 -16.5625 8.8125 C-15.64849282 5.65195937 -15.00527104 4.0067086 -12.9375 1.375 C-8.70656835 -0.60543609 -4.58092452 -0.97344646 0 0 Z " fill="#FEE300" transform="translate(130,0)"/>
<path d="M0 0 C11.80223383 7.17933718 18.1316445 16.14217104 22.1640625 29.31640625 C22.81890625 29.24679688 23.47375 29.1771875 24.1484375 29.10546875 C33.07858009 28.57571453 40.3276907 31.14646363 47.1484375 37.02734375 C53.09317313 43.53123768 54.50029966 49.90567745 54.3671875 58.546875 C54.19150845 60.94219132 53.84327095 63.02133898 53.1640625 65.31640625 C54.01677734 65.33767578 54.01677734 65.33767578 54.88671875 65.359375 C62.15297862 65.80820908 66.24161549 68.11114178 71.1015625 73.44140625 C73.00324813 78.58714384 73.10826056 84.13344928 71.54296875 89.41015625 C69.11784124 94.32508133 65.03169571 97.03686358 60.1640625 99.31640625 C57.20798338 99.97027914 54.38090647 100.00942017 51.36132812 99.97583008 C50.52135284 99.98631378 49.68137756 99.99679749 48.81594849 100.00759888 C46.06701914 100.03617171 43.31936266 100.0300785 40.5703125 100.0234375 C38.65358923 100.03656334 36.73687976 100.05187027 34.82019043 100.06925964 C29.79619003 100.10901884 24.77255224 100.11929425 19.74841309 100.12329102 C14.61341414 100.13263957 9.47862673 100.17006392 4.34375 100.20507812 C-5.71613603 100.26956153 -15.77586287 100.30287745 -25.8359375 100.31640625 C-25.29106689 101.05391113 -24.74619629 101.79141602 -24.18481445 102.55126953 C-23.46769287 103.52821777 -22.75057129 104.50516602 -22.01171875 105.51171875 C-21.30184814 106.47609863 -20.59197754 107.44047852 -19.8605957 108.43408203 C-10.69677551 121.4797906 -8.22270969 136.65406845 -9.8359375 152.31640625 C-10.68602298 157.13123465 -12.20850857 161.71410723 -13.8359375 166.31640625 C-14.42004161 168.10782178 -15.00348322 169.89945362 -15.5859375 171.69140625 C-15.9984375 172.88765625 -16.4109375 174.08390625 -16.8359375 175.31640625 C-14.1959375 176.63640625 -11.5559375 177.95640625 -8.8359375 179.31640625 C-11.6403345 182.12080325 -15.055572 183.30014288 -18.6484375 184.84375 C-19.44088867 185.18849365 -20.23333984 185.5332373 -21.04980469 185.88842773 C-23.64315132 187.01500416 -26.23945437 188.13457986 -28.8359375 189.25390625 C-30.62642733 190.02974031 -32.41679135 190.80586478 -34.20703125 191.58227539 C-45.0807168 196.2919996 -55.97392559 200.95452931 -66.90063477 205.54003906 C-72.09443868 207.72147895 -77.27043999 209.93598252 -82.42578125 212.20703125 C-83.49248047 212.67633057 -84.55917969 213.14562988 -85.65820312 213.62915039 C-87.68119503 214.52189862 -89.7021591 215.41926145 -91.72070312 216.32202148 C-93.0597168 216.91285522 -93.0597168 216.91285522 -94.42578125 217.515625 C-95.59935181 218.03902466 -95.59935181 218.03902466 -96.79663086 218.57299805 C-98.8359375 219.31640625 -98.8359375 219.31640625 -101.8359375 219.31640625 C-101.86329368 217.60816492 -101.88249256 215.8997922 -101.8984375 214.19140625 C-101.91003906 213.24007812 -101.92164063 212.28875 -101.93359375 211.30859375 C-101.83314349 208.23079768 -101.40557517 205.33952268 -100.8359375 202.31640625 C-101.58617187 201.84332031 -102.33640625 201.37023437 -103.109375 200.8828125 C-120.49884314 189.6475516 -132.06398243 176.39477449 -137.4453125 156.0078125 C-139.90578843 139.05513337 -137.34943452 121.77327225 -127.8359375 107.31640625 C-118.35720224 94.67562992 -105.26787676 84.42314741 -89.8359375 80.31640625 C-85.1435831 79.78915979 -80.42897223 79.53324383 -75.71484375 79.28125 C-70.07991172 78.96493118 -70.07991172 78.96493118 -65.21875 76.37109375 C-62.63161926 72.52693903 -62.36131691 69.98350875 -62.8359375 65.31640625 C-66.15134833 60.4538037 -69.99172483 59.49072895 -75.3984375 58.05859375 C-79.64187819 56.76652046 -82.67395952 54.47838423 -85.7734375 51.37890625 C-86.8359375 49.31640625 -86.8359375 49.31640625 -86.7734375 46.94140625 C-84.2972724 40.00814398 -79.33468724 34.81363324 -72.95703125 31.2734375 C-66.8893952 28.66251532 -60.11431592 28.22361344 -53.8359375 30.31640625 C-53.7740625 29.01703125 -53.7121875 27.71765625 -53.6484375 26.37890625 C-52.80651341 18.83716367 -48.48050031 11.38444602 -42.8359375 6.31640625 C-30.54604862 -2.60458507 -14.47667218 -7.13884006 0 0 Z " fill="#E5F7FB" transform="translate(311.8359375,55.68359375)"/>
<path d="M0 0 C1.35518486 -0.01045349 1.35518486 -0.01045349 2.73774719 -0.02111816 C5.63250449 -0.03839742 8.5270683 -0.04483638 11.421875 -0.046875 C12.90335526 -0.04838562 12.90335526 -0.04838562 14.4147644 -0.04992676 C27.74654165 -0.04071383 40.83285501 0.14465713 53.95361328 2.76318359 C56.17549054 3.20384206 58.40126929 3.57656449 60.63671875 3.94140625 C92.46334033 9.48875504 125.02381567 23.32211938 151.171875 42.203125 C151.86055664 42.69554687 152.54923828 43.18796875 153.25878906 43.6953125 C161.67490269 49.74907566 169.58091717 56.13284659 177.171875 63.203125 C178.54262683 64.39552622 179.91745363 65.58326383 181.296875 66.765625 C189.10682771 73.60520282 195.68264341 81.11365773 202.171875 89.203125 C203.73412058 91.07833699 205.29661711 92.95333994 206.859375 94.828125 C210.6288045 99.42418378 214.0059426 104.17487942 217.171875 109.203125 C215.85916586 112.10533828 214.45288518 114.17024792 212.1953125 116.41015625 C211.31915283 117.28450317 211.31915283 117.28450317 210.42529297 118.17651367 C209.49547607 119.08687378 209.49547607 119.08687378 208.546875 120.015625 C207.91023926 120.64509033 207.27360352 121.27455566 206.61767578 121.9230957 C202.92033691 125.5567849 199.17276006 129.09110183 195.21484375 132.44140625 C193.06676659 134.29376342 190.98598964 136.21133784 188.90771484 138.14135742 C183.80803974 142.87355358 178.61130224 147.41505709 173.1875 151.77734375 C170.97545284 153.55672365 168.77980661 155.34943053 166.59375 157.16015625 C139.46463129 179.56145009 110.16656721 198.59811282 79.171875 215.203125 C78.36314941 215.63882813 77.55442383 216.07453125 76.72119141 216.5234375 C74.27631512 217.83068423 71.82056715 219.11440487 69.359375 220.390625 C68.61220215 220.78983154 67.8650293 221.18903809 67.09521484 221.6003418 C61.89345557 224.24533445 61.89345557 224.24533445 58.3671875 224.0390625 C55.52246798 222.9558419 52.85452648 221.63803161 50.171875 220.203125 C50.584375 219.006875 50.996875 217.810625 51.421875 216.578125 C51.69128906 215.74925781 51.96070313 214.92039063 52.23828125 214.06640625 C52.88722607 212.07612778 53.5638145 210.09473694 54.26171875 208.12109375 C59.09759569 193.3381105 59.20561506 176.52653325 52.3671875 162.31640625 C49.73531575 157.14495405 46.93628701 152.1938583 43.53857422 147.48388672 C43.09375702 146.86585175 42.64893982 146.24781677 42.19064331 145.61105347 C41.85444977 145.14643707 41.51825623 144.68182068 41.171875 144.203125 C42.24405273 144.20169998 43.31623047 144.20027496 44.42089844 144.19880676 C54.54332059 144.18211068 64.66534208 144.13925725 74.78755188 144.07103443 C79.99107587 144.03679728 85.19430728 144.01165951 90.39794922 144.00756836 C95.4232622 144.00327844 100.44791553 143.97475785 105.47302246 143.92969322 C107.38663892 143.91674045 109.30033441 143.91240265 111.21398926 143.91697121 C113.90249156 143.92189307 116.58907757 143.89571586 119.27734375 143.86254883 C120.06209579 143.87117447 120.84684784 143.87980011 121.65538025 143.88868713 C127.5504379 143.76739902 131.5973814 141.9210661 136.171875 138.203125 C140.02117087 133.15092417 139.96361826 127.30955867 139.171875 121.203125 C136.9943603 116.21298715 134.10149689 114.23616222 129.3671875 111.96484375 C126.66816894 111.02835155 123.99469703 110.60925751 121.171875 110.203125 C121.22988281 109.16414063 121.28789062 108.12515625 121.34765625 107.0546875 C121.68650961 98.39521715 121.57203491 91.44619663 116.171875 84.203125 C111.20712941 79.01270915 105.14366705 75.50423559 97.92578125 74.95703125 C94.99614158 74.95358056 92.0956614 75.02502634 89.171875 75.203125 C88.9759375 74.46449219 88.78 73.72585937 88.578125 72.96484375 C85.07868694 61.09390517 79.56835796 52.95116244 68.8828125 46.54296875 C59.75262905 42.03050056 49.00530365 41.75675924 39.08984375 43.85546875 C30.01962209 47.18359733 23.05662081 53.06747284 18.390625 61.4921875 C16.40174121 65.916179 15.1970408 70.47297403 14.171875 75.203125 C12.9034375 75.15091797 12.9034375 75.15091797 11.609375 75.09765625 C1.09832568 74.84682439 -5.24725806 76.01888144 -13.0625 83.21875 C-15.78561732 86.27924468 -17.24316583 89.43884698 -18.828125 93.203125 C-22.72296267 88.93537734 -22.37238912 85.02654966 -22.25390625 79.4765625 C-21.47455129 73.48482439 -18.29145341 69.15191421 -13.828125 65.203125 C-13.168125 65.203125 -12.508125 65.203125 -11.828125 65.203125 C-10.02450497 61.37043243 -9.38734306 58.43463165 -9.828125 54.203125 C-11.08916399 51.42883923 -12.13902414 49.71995065 -14.578125 47.890625 C-18.81831617 46.59501103 -22.5902356 46.78171584 -26.765625 48.203125 C-32.26848993 49.99997886 -36.79326867 49.93851204 -42.015625 47.578125 C-47.77887259 44.36878713 -51.56530082 39.3961175 -53.828125 33.203125 C-54.39738681 27.67950651 -54.09267109 23.29835371 -51.828125 18.203125 C-51.60817281 14.61057256 -51.90000618 11.65572701 -52.828125 8.203125 C-44.7809528 5.86493485 -36.78462175 3.88446146 -28.515625 2.515625 C-27.80035645 2.39662842 -27.08508789 2.27763184 -26.34814453 2.1550293 C-17.58174238 0.76352097 -8.8744607 0.04633046 0 0 Z " fill="#00ADF3" transform="translate(243.828125,10.796875)"/>
<path d="M0 0 C6.67192692 5.58579928 10.70684874 12.54366247 13.1875 20.8125 C13.375 23.8125 13.375 23.8125 13.1875 25.8125 C14.1775 25.4825 15.1675 25.1525 16.1875 24.8125 C24.60934898 23.55002169 31.260921 26.03890829 38.1875 30.8125 C42.99469546 35.57789376 46.83046599 40.86412385 47.453125 47.75 C47.44796875 48.760625 47.4428125 49.77125 47.4375 50.8125 C47.44523437 52.3284375 47.44523437 52.3284375 47.453125 53.875 C47.18113426 56.8828976 46.45071118 59.08556793 45.1875 61.8125 C45.75597656 61.76609375 46.32445312 61.7196875 46.91015625 61.671875 C52.98168831 61.38806382 56.28373091 62.15871126 61.1875 65.8125 C64.65577967 69.45864016 65.47945462 72.35086697 65.6875 77.25 C65.42696933 83.25034706 64.11745102 87.0646399 59.71893501 91.18979645 C53.10746129 96.01479301 46.12004789 95.50494386 38.23779297 95.42773438 C36.72911964 95.43123974 35.22045002 95.436903 33.71179199 95.44454956 C29.63323276 95.45874535 25.55535193 95.44178923 21.47685766 95.41826439 C17.20089366 95.3980957 12.92495618 95.40403794 8.6489563 95.40637207 C1.47174953 95.40631857 -5.7051933 95.38660482 -12.88232422 95.35449219 C-21.17353444 95.31757458 -29.46439946 95.3088213 -37.75568116 95.3157897 C-45.74340661 95.32209931 -53.73101404 95.31133374 -61.71871567 95.29182434 C-65.11331747 95.28366164 -68.50785885 95.28093869 -71.90246964 95.28251648 C-75.8999104 95.28339679 -79.89702419 95.26914008 -83.89437866 95.24328995 C-85.35927622 95.23614169 -86.8242086 95.23403807 -88.28911972 95.23740768 C-90.2922256 95.24113577 -92.29533825 95.2244988 -94.29837036 95.20690918 C-95.41809801 95.20318047 -96.53782566 95.19945175 -97.69148445 95.19561005 C-102.85735462 94.56149057 -105.99723832 92.66481902 -109.5625 88.9375 C-113.33300882 83.70068219 -114.26449937 80.36757035 -113.34765625 74.0234375 C-112.2118289 69.33089531 -109.70655956 66.58180706 -106.125 63.5 C-102.00122928 61.39921114 -98.38576729 61.01575632 -93.8125 60.8125 C-94.1425 59.8225 -94.4725 58.8325 -94.8125 57.8125 C-95.67148247 49.06314998 -95.06035158 42.04259092 -89.8125 34.8125 C-84.67802 29.02115689 -78.96405113 25.21401796 -71.15625 24.60546875 C-64.43889276 24.49930362 -64.43889276 24.49930362 -61.8125 25.8125 C-61.585625 24.513125 -61.35875 23.21375 -61.125 21.875 C-58.86296869 11.74364849 -53.0293157 3.78008266 -44.5 -1.9375 C-30.53972956 -10.33590971 -13.30184645 -9.51712807 0 0 Z " fill="#7070AA" transform="translate(259.8125,353.1875)"/>
<path d="M0 0 C3.34552795 2.03260274 4.7477975 3.35787917 6.1875 7.0234375 C6.5896875 8.68246094 6.5896875 8.68246094 7 10.375 C8.91601236 17.2113321 10.698456 20.7733773 16.6875 24.8125 C22.92437101 27.04835942 28.52971839 27.95061265 34.8125 25.4375 C39.01452957 23.3142914 41.17723447 20.70992041 44 17 C47.53718772 14.31661621 51.72956757 14.45664478 56 15 C59.14226465 16.29789192 60.53537592 17.28194461 62.375 20.125 C63.36440174 24.67624799 63.10795715 29.78408571 61 34 C60.13943778 40.50339165 60.96673549 45.43897593 64.43359375 51.01953125 C67.54755902 54.95663946 71.21651665 57.40550555 76 59 C81.36548411 59.26387627 84.90169992 58.73559152 90 57 C94.32580209 56.5365212 96.43913921 56.70369619 100.3125 58.75 C103.90681302 61.75919229 104.82095839 63.31700882 105.3125 67.9375 C104.94521047 71.5369374 104.20151905 73.13802523 102 76 C101.01 76.804375 100.02 77.60875 99 78.4375 C94.85553076 81.97756748 93.32486753 84.51591192 92.61328125 89.95703125 C92.25049283 96.88225908 92.90824729 101.66853752 97.23046875 107.1953125 C101.53268432 111.58300255 106.24428188 113.156038 112.13671875 114.4375 C115.00476887 115.30332645 116.87785052 116.94215808 119 119 C120.5547669 122.10953379 120.28644437 124.56266761 120 128 C116.92307692 133.53846154 116.92307692 133.53846154 114 135 C112.46376741 135.17322665 110.9218044 135.29714883 109.37890625 135.39453125 C95.77802883 136.22996541 95.77802883 136.22996541 82.828125 140.1953125 C81 141 81 141 79 141 C79.01571045 139.96613159 79.01571045 139.96613159 79.03173828 138.91137695 C79.41372576 109.9649459 75.54818836 86.93298251 55.37060547 65.2019043 C40.73983499 50.25527089 19.53982445 41.04080906 -1.27807617 40.70703125 C-27.06060179 40.56703247 -47.46475347 48.02673513 -66.3125 65.9375 C-83.81481516 84.3780836 -90.01831856 106.67476208 -89.38671875 131.56640625 C-89.03697299 139.17585895 -87.71848914 145.84841911 -85 153 C-84.62617187 154.04800781 -84.25234375 155.09601563 -83.8671875 156.17578125 C-75.56736932 177.80477763 -58.94540636 193.55117187 -38.203125 203.26953125 C-31.72765796 206.08993651 -24.89963767 207.60539239 -18 209 C-18.38671875 209.50789062 -18.7734375 210.01578125 -19.171875 210.5390625 C-19.69265625 211.22742188 -20.2134375 211.91578125 -20.75 212.625 C-21.26046875 213.29789063 -21.7709375 213.97078125 -22.296875 214.6640625 C-24.13675799 217.0746279 -24.13675799 217.0746279 -25.75 220.26953125 C-28 223 -28 223 -31.390625 223.41015625 C-32.66421875 223.29542969 -33.9378125 223.18070313 -35.25 223.0625 C-40.94085543 222.75364611 -44.80150449 223.03159887 -49.42578125 226.5625 C-51.69858313 228.63791214 -53.88488042 230.76401645 -56 233 C-59.53430656 235.35620437 -60.83571287 235.48991613 -65 235 C-68.03522895 233.36564595 -70.28352297 231.944447 -72.375 229.1875 C-73.58365697 224.9572006 -73.4116381 221.20918693 -72 217.0625 C-70.18450054 211.50253291 -70.27447109 207.00590911 -72.6875 201.75 C-76.02009118 195.83696496 -80.38504673 193.46289277 -86.7265625 191.53515625 C-92.16016517 190.25611232 -95.96477697 190.93426747 -101 193 C-105.83924203 193.51481298 -108.89588247 192.61171115 -113 190 C-115.78709373 186.57947588 -115.40045977 182.20482755 -115 178 C-114.06244335 174.71855174 -112.90492776 173.92766243 -110.125 171.8125 C-106.17765207 168.63134491 -104.24590397 164.88301492 -103 160 C-102.58396946 153.3536584 -104.1429335 148.3570368 -108 143 C-112.56363568 138.75605859 -117.01166801 137.69652182 -122.94140625 136.22265625 C-126.6148488 134.75421753 -127.95925531 133.36209018 -130 130 C-130.53125 127.5 -130.53125 127.5 -130.5 125 C-130.5103125 124.175 -130.520625 123.35 -130.53125 122.5 C-129.80047845 119.06107505 -128.50779694 117.44986103 -126 115 C-122.9765625 113.8125 -122.9765625 113.8125 -119.625 113 C-112.7886679 111.08398764 -109.2266227 109.301544 -105.1875 103.3125 C-102.95164058 97.07562899 -102.04938735 91.47028161 -104.5625 85.1875 C-106.6857086 80.98547043 -109.29007959 78.82276553 -113 76 C-115.67821164 72.46963011 -115.5594796 68.26391267 -115 64 C-113.36312815 60.41447119 -112.31027417 59.20684945 -109 57 C-106.625 56.76953125 -106.625 56.76953125 -104 56.8125 C-103.13375 56.81894531 -102.2675 56.82539062 -101.375 56.83203125 C-99 57 -99 57 -96 58 C-89.24291614 58.73211743 -83.51201974 58.21363287 -78 54 C-73.79690014 49.39959219 -71.85628441 45.28843851 -71.875 39 C-71.87242188 38.13375 -71.86984375 37.2675 -71.8671875 36.375 C-71.90405795 33.84988305 -71.90405795 33.84988305 -73 31 C-73.61963036 25.77740127 -73.9313284 22.20092346 -70.625 17.9375 C-66.39603115 14.81611823 -63.1631174 14.61869193 -58 15 C-54.71855174 15.93755665 -53.92766243 17.09507224 -51.8125 19.875 C-48.62839214 23.82601189 -44.88350899 25.74424055 -40 27 C-33.82081648 27.47826498 -28.73843071 26.07382129 -23.68359375 22.50390625 C-19.37618393 18.65621998 -18.00325866 14.19555435 -16.5625 8.8125 C-15.64849282 5.65195937 -15.00527104 4.0067086 -12.9375 1.375 C-8.70656835 -0.60543609 -4.58092452 -0.97344646 0 0 Z " fill="#FEF342" transform="translate(130,0)"/>
<path d="M0 0 C0.94359375 0.18691406 1.8871875 0.37382812 2.859375 0.56640625 C3.56578125 0.70949219 4.2721875 0.85257812 5 1 C5 1.33 5 1.66 5 2 C4.175 2.13535156 3.35 2.27070313 2.5 2.41015625 C-25.9272337 7.70853575 -51.31789244 26.48184523 -67.671875 50.015625 C-68.11015625 50.67046875 -68.5484375 51.3253125 -69 52 C-68.60167969 52.43570313 -68.20335937 52.87140625 -67.79296875 53.3203125 C-62.34822095 59.44068594 -59.42551429 64.16108758 -59.71484375 72.5390625 C-60.44501529 78.84054293 -63.2182289 82.99665676 -68 87 C-73.58829343 90.95269536 -79.43802997 90.28668801 -86 90 C-91.56263105 126.10743549 -86.68830555 160.00912294 -64.8515625 189.9453125 C-62.65693284 192.72623312 -60.37718027 195.37359922 -58 198 C-57.11828125 198.97582031 -56.2365625 199.95164062 -55.328125 200.95703125 C-44.93656777 212.07295693 -32.8426844 219.90784201 -19.1875 226.5 C-18.3406665 226.90943848 -17.49383301 227.31887695 -16.62133789 227.74072266 C-10.5701054 230.54407869 -4.4748233 232.42548104 2 234 C2 234.66 2 235.32 2 236 C-27.96663956 242.75950935 -60.50095669 237.66177475 -86.9375 222.1875 C-93.78456973 217.69575221 -99.9715722 212.5232833 -106 207 C-106.51981445 206.52546387 -107.03962891 206.05092773 -107.57519531 205.56201172 C-116.89195956 196.94327463 -124.84665954 187.14678608 -131 176 C-131 175.34 -131 174.68 -131 174 C-130.22398437 173.99589111 -129.44796875 173.99178223 -128.6484375 173.98754883 C-125.09820876 173.95445078 -121.54965906 173.88378564 -118 173.8125 C-116.16888672 173.80379883 -116.16888672 173.80379883 -114.30078125 173.79492188 C-107.01229224 173.6176343 -101.53697891 173.03556231 -96 168 C-92.15793049 162.95728377 -92.19242782 157.09762363 -93 151 C-94.77376609 147.17958073 -96.22027418 145.5258616 -99.6875 143.1875 C-103.78594942 141.71824455 -107.67509916 141.27871583 -112 141 C-111.84144531 140.29488281 -111.68289063 139.58976563 -111.51953125 138.86328125 C-110.18373036 131.50131093 -109.99719721 124.4454478 -113.734375 117.81640625 C-118.42289679 111.08750924 -123.19400984 107.66787006 -131 105 C-135.39206159 104.54725826 -139.60574612 104.61727466 -144 105 C-144.21732151 99.010076 -143.56129614 93.90076736 -142 88.125 C-141.77852295 87.30418945 -141.5570459 86.48337891 -141.32885742 85.63769531 C-135.48938506 65.03892206 -124.85523387 48.21590723 -110 33 C-109.34644531 32.28457031 -108.69289063 31.56914062 -108.01953125 30.83203125 C-97.96553747 20.09205068 -85.27414151 12.97769032 -72 7 C-70.41638672 6.27490234 -70.41638672 6.27490234 -68.80078125 5.53515625 C-47.36428962 -3.49506878 -22.6543917 -4.53750243 0 0 Z " fill="#FEF1B9" transform="translate(417,274)"/>
<path d="M0 0 C5.62967015 2.54773394 8.961956 6.34375734 11.453125 11.85546875 C13.31495425 17.57847797 12.03526456 22.4032463 10.140625 27.96875 C9.70287155 32.95913935 9.96949494 36.00483742 13.140625 39.96875 C16.36344836 42.30251864 19.24197851 42.28700686 23.140625 41.96875 C25.88920521 41.33659258 25.88920521 41.33659258 28.140625 39.96875 C28.84213652 38.6534159 29.50588425 37.31757408 30.140625 35.96875 C35.40774086 31.25606739 38.79545255 29.70184655 45.890625 29.84375 C47.06109375 29.86179688 48.2315625 29.87984375 49.4375 29.8984375 C50.32953125 29.92164063 51.2215625 29.94484375 52.140625 29.96875 C52.140625 34.21509634 51.29216354 36.51243035 49.703125 40.40625 C47.40820077 46.04875602 46.08549062 50.96687903 45.82421875 57.05078125 C45.78232422 57.98212891 45.74042969 58.91347656 45.69726562 59.87304688 C45.65794922 60.83275391 45.61863281 61.79246094 45.578125 62.78125 C45.53494141 63.76029297 45.49175781 64.73933594 45.44726562 65.74804688 C45.3416024 68.15482027 45.23950173 70.56168983 45.140625 72.96875 C44.46386719 72.81148438 43.78710938 72.65421875 43.08984375 72.4921875 C34.26858106 70.92655942 25.16163619 70.69466197 17.2890625 75.36328125 C10.5011022 80.43573885 6.20431751 86.72619117 4.140625 94.96875 C2.9532244 103.52537906 4.78159897 110.73111975 9.42578125 117.97265625 C13.8306863 123.65363408 20.09105477 127.52112777 27.140625 128.96875 C28.97274001 129.0815841 30.80820495 129.14460564 32.64355469 129.17407227 C33.74439392 129.19401749 34.84523315 129.21396271 35.97943115 129.23451233 C37.16184387 129.25122482 38.34425659 129.26793732 39.5625 129.28515625 C40.77762268 129.30593735 41.99274536 129.32671844 43.24468994 129.34812927 C47.12661073 129.41351828 51.0085992 129.47246051 54.890625 129.53125 C57.52214242 129.57444532 60.15365299 129.61805994 62.78515625 129.66210938 C69.2369076 129.76918883 75.68872629 129.87097514 82.140625 129.96875 C79.38939542 132.77815823 76.68918239 135.46216016 73.53125 137.80859375 C72.86754395 138.30705811 72.20383789 138.80552246 71.52001953 139.3190918 C70.81731934 139.842854 70.11461914 140.36661621 69.390625 140.90625 C57.31397383 150.0314444 45.57807973 159.54156842 34.46484375 169.82421875 C32.47083306 171.66407063 30.44807322 173.45083607 28.390625 175.21875 C23.70058244 179.28733765 19.19835822 183.55951016 14.68261719 187.81933594 C10.59835826 191.65892565 6.42137777 195.34911735 2.140625 198.96875 C-22.79273318 156.80413004 -37.35979793 113.65029247 -37.171875 64.34375 C-37.17038452 63.37552307 -37.16889404 62.40729614 -37.1673584 61.409729 C-37.12772285 47.08384585 -36.6834415 33.05744834 -33.859375 18.96875 C-33.68825195 18.10072754 -33.51712891 17.23270508 -33.34082031 16.33837891 C-30.50674029 2.26348058 -30.50674029 2.26348058 -28.859375 -1.03125 C-28.19550781 -0.93585938 -27.53164063 -0.84046875 -26.84765625 -0.7421875 C-17.16319487 0.47367188 -9.69851316 -3.56271912 0 0 Z " fill="#00ADF3" transform="translate(47.859375,192.03125)"/>
<path d="M0 0 C8.27292435 5.3026894 13.35353229 17.0998761 15.4375 26.375 C15.623125 27.57125 15.80875 28.7675 16 30 C16.48726562 29.71125 16.97453125 29.4225 17.4765625 29.125 C25.09814987 25.13405971 33.26674345 24.55385021 41.6171875 26.66015625 C47.17473544 28.8812524 51.99277062 32.56693425 56 37 C56 37.66 56 38.32 56 39 C55.1028125 39.268125 54.205625 39.53625 53.28125 39.8125 C33.07278666 46.15895956 16.22958691 56.27806599 1 71 C0.29617188 71.66386719 -0.40765625 72.32773437 -1.1328125 73.01171875 C-4.05678679 75.82810091 -5.90216127 77.78593431 -7.62919617 81.56459045 C-9.62403228 84.3278444 -10.67598789 84.93236543 -14.05904579 85.6385479 C-18.23164336 85.86587655 -22.35454649 85.86617548 -26.53051758 85.79467773 C-28.13714511 85.79270262 -29.74377897 85.79381272 -31.35040283 85.79777527 C-35.70796006 85.79978348 -40.06416808 85.75863531 -44.42141175 85.70975757 C-48.97640275 85.66599307 -53.53142482 85.66188606 -58.08659363 85.65357971 C-66.71051344 85.63182428 -75.33381196 85.57438324 -83.9574582 85.50413328 C-93.77592096 85.42588666 -103.59441343 85.38740256 -113.41311038 85.35226524 C-133.609087 85.27910042 -153.80450436 85.15597888 -174 85 C-168.55228471 79.48716256 -168.55228471 79.48716256 -165.3203125 77.421875 C-164.31013062 76.77109985 -164.31013062 76.77109985 -163.27954102 76.10717773 C-162.56854248 75.65930908 -161.85754395 75.21144043 -161.125 74.75 C-159.99952759 74.03275757 -159.99952759 74.03275757 -158.85131836 73.30102539 C-140.80393506 61.85471936 -122.27174864 51.25106442 -103 42 C-102.10845215 41.56945312 -101.2169043 41.13890625 -100.29833984 40.6953125 C-82.58502914 32.18398883 -64.55576724 24.49078755 -46.42700195 16.91381836 C-34.02637545 11.73024473 -34.02637545 11.73024473 -21.73046875 6.3046875 C-20.56539795 5.7782666 -19.40032715 5.2518457 -18.19995117 4.70947266 C-16.14126198 3.77052065 -14.08755174 2.82053289 -12.0402832 1.85693359 C-11.16073975 1.45555176 -10.28119629 1.05416992 -9.375 0.640625 C-8.64023437 0.29547852 -7.90546875 -0.04966797 -7.1484375 -0.40527344 C-4.43489447 -1.15643148 -2.68214313 -0.77293011 0 0 Z " fill="#7070AB" transform="translate(306,237)"/>
<path d="M0 0 C-2.69556364 1.79704243 -5.25272896 2.95353797 -8.24169922 4.15551758 C-29.45192876 12.80515021 -44.70625696 27.88520847 -54.8125 48.375 C-64.38396278 71.37309808 -63.32807322 96.13200886 -54 119 C-46.99142714 134.18855024 -35.8645068 145.88833478 -22 155 C-20.515 155.99 -20.515 155.99 -19 157 C-20.15827362 160.47482085 -21.088188 161.05553362 -24 163.125 C-26.61148525 164.93010011 -26.61148525 164.93010011 -29 167 C-47.30468513 167.55831284 -64.16413462 155.7345796 -77.15234375 144.06640625 C-90.55321278 131.28285172 -100.99826047 111.89242492 -102.17700195 93.19189453 C-102.71578796 66.29552531 -97.99605976 44.83771138 -79.625 24.3515625 C-63.00633884 7.05776823 -23.97453594 -14.31688594 0 0 Z " fill="#FDCA00" transform="translate(142,42)"/>
<path d="M0 0 C0.35069761 2.49085227 0.60363582 4.93451226 0.8125 7.4375 C1.94473916 18.11391191 5.80231759 26.78045015 14 34 C21.40213891 39.23131933 29.16362888 41.39849554 38 43 C38.14695312 43.7734375 38.29390625 44.546875 38.4453125 45.34375 C40.33384282 54.113477 42.65605772 60.02923505 50.17578125 65.171875 C56.73602012 68.29630092 64.38054273 67.68280582 71.5 67.75 C73.00524211 67.77819898 74.5104528 67.80813182 76.015625 67.83984375 C79.67693617 67.91324292 83.33811788 67.96310126 87 68 C87 68.33 87 68.66 87 69 C70.67528613 69.07011688 54.35062119 69.12300126 38.02579308 69.15543652 C30.44569232 69.17089784 22.86568519 69.19197324 15.28564453 69.22631836 C8.67799015 69.2562433 2.07040358 69.27558035 -4.53731668 69.28226548 C-8.03527433 69.28617253 -11.53303798 69.29533909 -15.03093338 69.31719017 C-18.93813939 69.34139964 -22.84515653 69.341968 -26.75244141 69.34057617 C-27.90906281 69.351362 -29.0656842 69.36214783 -30.25735474 69.3732605 C-35.89451547 69.35150186 -40.19617713 69.31061271 -45 66 C-48.77026669 62.05835755 -51.94747496 58.53230896 -52.03125 52.8984375 C-51.67732186 47.60721179 -50.53684059 44.1103823 -47 40 C-42.24566965 35.90906459 -38.05174197 35.26896631 -32 35 C-32.33 34.01 -32.66 33.02 -33 32 C-33.85898247 23.25064998 -33.24785158 16.23009092 -28 9 C-21.46995534 1.63455517 -9.93616364 -4.96808182 0 0 Z " fill="#616196" transform="translate(198,379)"/>
<path d="M0 0 C0.20753906 0.94359375 0.41507812 1.8871875 0.62890625 2.859375 C3.85042702 16.636517 9.2769366 27.45339539 21 36 C26.96024107 39.64744814 33.32180441 42.01589841 40 44 C40 44.33 40 44.66 40 45 C1.06 45 -37.88 45 -78 45 C-72.37188209 39.37188209 -72.37188209 39.37188209 -69.3203125 37.421875 C-68.64685791 36.9880249 -67.97340332 36.5541748 -67.27954102 36.10717773 C-66.56854248 35.65930908 -65.85754395 35.21144043 -65.125 34.75 C-64.37468506 34.27183838 -63.62437012 33.79367676 -62.85131836 33.30102539 C-44.78295206 21.84141118 -26.21993941 11.40256029 -7 2 C-6.25492187 1.5978125 -5.50984375 1.195625 -4.7421875 0.78125 C-3 0 -3 0 0 0 Z " fill="#616196" transform="translate(210,277)"/>
<path d="M0 0 C0.35069918 2.4908634 0.6038912 4.93447628 0.8125 7.4375 C1.86632607 17.45885236 5.28496604 26.17002405 13 33 C19.35632621 37.42490233 25.66740649 40.69791588 33.3125 42.125 C34.19550781 42.29257813 35.07851563 42.46015625 35.98828125 42.6328125 C36.98408203 42.81457031 36.98408203 42.81457031 38 43 C38.11214844 43.92619141 38.11214844 43.92619141 38.2265625 44.87109375 C39.5019762 53.08625844 42.41369105 59.58524431 49.24365234 64.58740234 C55.15072219 68.1922298 61.39189149 67.72750978 68.125 67.70703125 C69.48122357 67.72016706 70.83742765 67.73547703 72.19360352 67.75285339 C75.73804159 67.7924979 79.28196554 67.80288032 82.82659912 67.80688477 C86.45356643 67.81625546 90.08023651 67.85369318 93.70703125 67.88867188 C100.80464366 67.95303729 107.90209364 67.98644963 115 68 C115 68.33 115 68.66 115 69 C103.699292 69.20906947 92.39904833 69.36871627 81.09679604 69.46630955 C75.84784987 69.51316454 70.60023234 69.57665394 65.35205078 69.67895508 C60.28149862 69.77716857 55.21221937 69.83064547 50.14078903 69.85389519 C48.2118362 69.87045024 46.28294853 69.90278039 44.35454178 69.95157051 C27.36122705 70.36418489 27.36122705 70.36418489 20.95532227 64.58691406 C19.62162579 63.07123166 18.30080914 61.54399968 17 60 C8.60513905 53.83607876 -2.01330941 51.25190082 -12 49 C-11.34 47.989375 -10.68 46.97875 -10 45.9375 C-7.86004561 42.14080673 -7.26767713 39.39393723 -8 35 C-11.31541083 30.13739745 -15.15578733 29.1743227 -20.5625 27.7421875 C-24.80594069 26.45011421 -27.83802202 24.16197798 -30.9375 21.0625 C-32 19 -32 19 -31.9375 16.625 C-29.4613349 9.69173773 -24.49874974 4.49722699 -18.12109375 0.95703125 C-12.76977121 -1.34565906 -5.39280222 -2.69640111 0 0 Z " fill="#B7E8F9" transform="translate(257,86)"/>
<path d="M0 0 C5.90276156 3.45555139 10.13202534 7.47131124 12.03515625 14.19140625 C13.05659896 23.47620572 12.11111981 29.70928792 6.84765625 37.37890625 C1.87620595 42.35035655 -4.45967227 45.27144725 -11.52734375 45.56640625 C-18.3094238 45.47729863 -23.79815402 43.00478762 -28.85546875 38.51171875 C-34.61576178 32.22013655 -35.43466666 25.71930835 -35.2734375 17.3828125 C-34.66623718 11.10328514 -32.2366656 7.11217643 -27.65234375 2.87890625 C-18.98122694 -3.86325449 -9.78591529 -4.95336453 0 0 Z " fill="#FEF2B9" transform="translate(477.96484375,382.80859375)"/>
<path d="M0 0 C3.22385056 2.18556417 5.01049039 4.24415145 7.1953125 7.48828125 C7.7934375 8.37515625 8.3915625 9.26203125 9.0078125 10.17578125 C11.41916834 16.90219491 11.10819727 23.27631299 8.1953125 29.80078125 C4.93803512 35.62131384 0.46553974 38.59499179 -5.1796875 41.86328125 C-11.94939349 43.47511601 -17.96671505 43.16889356 -24.0546875 39.6953125 C-29.43125267 35.98692268 -34.01406189 30.82434111 -35.8046875 24.48828125 C-36.84159319 16.83428007 -35.31651838 10.77881468 -30.8046875 4.48828125 C-21.68849624 -4.40735699 -11.23771661 -6.25296144 0 0 Z " fill="#FFF340" transform="translate(170.8046875,72.51171875)"/>
<path d="M0 0 C4.92609804 3.51009415 8.5422388 7.9248787 9.6875 13.9375 C10.32297772 19.47969912 9.89519071 24.15534169 7.16796875 29.078125 C3.8740795 33.21504131 -2.01973587 37.43725314 -7.34375 38.24609375 C-14.68448003 38.62939136 -19.72350123 36.73513611 -25.3125 31.9375 C-29.54405013 26.94522176 -31.11630275 21.8657762 -30.72265625 15.35546875 C-29.50866057 8.19867516 -26.11448583 4.22525156 -20.3125 0.06640625 C-14.22482927 -3.36979852 -6.03461193 -3.49251734 0 0 Z " fill="#FFF2B9" transform="translate(450.3125,304.0625)"/>
<path d="M0 0 C2.4375 1.3125 2.4375 1.3125 4 4 C4.32396453 7.69107127 4.22932784 11.30527369 4 15 C4.74765625 14.95359375 5.4953125 14.9071875 6.265625 14.859375 C14.28156446 14.56559711 14.28156446 14.56559711 17.6875 16.625 C19.43054644 19.77908404 19.65292967 21.44516067 19 25 C17.125 27.875 17.125 27.875 14 30 C10.62352309 30.4072392 7.3825236 30.29556031 4 30 C4.05800781 30.66386719 4.11601562 31.32773438 4.17578125 32.01171875 C4.41212219 36.63724853 4.51034347 39.21128736 1.9375 43.1875 C-1 45 -1 45 -4.625 45.0625 C-8.37492817 43.88196706 -9.0952307 43.31189616 -11 40 C-11.29296875 37.421875 -11.29296875 37.421875 -11.1875 34.75 C-11.16042969 33.85796875 -11.13335937 32.9659375 -11.10546875 32.046875 C-11.07066406 31.37140625 -11.03585937 30.6959375 -11 30 C-11.66386719 30.05800781 -12.32773437 30.11601562 -13.01171875 30.17578125 C-20.20127796 30.54313099 -20.20127796 30.54313099 -24.125 27.875 C-26.3337936 24.48818314 -26.75856436 22.96139166 -26 19 C-24.6875 16.625 -24.6875 16.625 -22 15 C-18.30926983 14.67075501 -14.69472534 14.77067222 -11 15 C-11.04640625 14.25234375 -11.0928125 13.5046875 -11.140625 12.734375 C-11.43341214 4.74546887 -11.43341214 4.74546887 -9.4375 1.3125 C-6.03362851 -0.52035388 -3.80853299 -0.54407614 0 0 Z " fill="#7E7EBF" transform="translate(461,221)"/>
<path d="M0 0 C6.79494501 5.82423858 6.79494501 5.82423858 7.640625 10.2421875 C7.89696491 16.26617533 6.81421594 20.07205187 3.1875 24.875 C-0.69807401 28.52508467 -5.05731259 28.3774248 -10.15234375 28.2265625 C-14.9635833 27.59071586 -17.52466629 25.29161708 -20.6875 21.8125 C-22.45880636 17.18742228 -22.45792523 12.75871757 -21.8125 7.875 C-17.48781666 -1.09471359 -9.13773358 -3.65509343 0 0 Z " fill="#7F7FBF" transform="translate(142.8125,351.125)"/>
<path d="M0 0 C2.81992717 1.82120296 4.50345478 3.00690956 6 6 C6.52137294 10.82911 6.73402673 14.74166846 4.25 19 C0.89896183 21.97870059 -0.87160806 22.87462312 -5.375 23.375 C-9.67080432 22.93060645 -11.67783589 21.70408706 -15 19 C-17.8288298 14.7567553 -17.65268001 10.98265471 -17 6 C-12.85729058 -1.10178758 -7.51885243 -1.88976505 0 0 Z " fill="#FEE887" transform="translate(472,393)"/>
<path d="M0 0 C3.61403506 2.93640349 5.7819674 5.08131311 6.3125 9.75 C5.9148114 13.88596145 4.62359816 15.80913737 2 19 C-0.68065103 21.11630344 -2.53019548 21.90808173 -5.875 22.5625 C-10.44783454 21.73938978 -13.22163617 19.71207627 -16 16 C-17.13579934 12.90687655 -17.40910936 10.26703044 -17 7 C-13.18511354 -0.77106502 -8.02390802 -2.25985288 0 0 Z " fill="#FFF2BA" transform="translate(409,375)"/>
<path d="M0 0 C3.19319918 1.52402688 5.75765902 3.26006089 8 6 C8.68940482 9.38957368 8.60211938 12.59883918 8 16 C5.5625 19.0625 5.5625 19.0625 3 21 C2.67 21.33 2.34 21.66 2 22 C-0.75 22.5 -0.75 22.5 -4 22 C-5.50300941 20.35594572 -6.59818904 18.62956325 -7.765625 16.734375 C-9.00078346 14.735425 -9.00078346 14.735425 -11.8125 13.4375 C-14 12 -14 12 -14.75 9.1875 C-13.79943884 5.14761506 -12.23850934 3.62638295 -9.00390625 1.13671875 C-5.83715176 -0.65962736 -3.53919406 -0.58986568 0 0 Z " fill="#FEF8E0" transform="translate(307,370)"/>
<path d="M0 0 C3.4185354 0.79889686 5.05365451 2.80995577 7.15625 5.50390625 C7.48625 5.83390625 7.81625 6.16390625 8.15625 6.50390625 C8.76817269 11.76644134 7.40134023 14.39982155 4.15625 18.50390625 C0.65044924 20.25680663 -3.02754058 20.18161241 -6.84375 19.50390625 C-10.01832096 16.91241975 -11.38955349 15.4295493 -12.31640625 11.5 C-12.59299348 7.76252643 -11.92337876 5.6272024 -9.90625 2.50390625 C-6.33196684 0.16968052 -4.19593467 -0.21678996 0 0 Z " fill="#7E7EBE" transform="translate(416.84375,195.49609375)"/>
<path d="M0 0 C3.0625 1.9375 3.0625 1.9375 5 5 C6.03945854 9.75058323 5.669717 12.94141507 3.0625 17.0625 C-1.05858493 19.669717 -4.24941677 20.03945854 -9 19 C-12.0625 17.0625 -12.0625 17.0625 -14 14 C-15.03945854 9.24941677 -14.669717 6.05858493 -12.0625 1.9375 C-7.94141507 -0.669717 -4.75058323 -1.03945854 0 0 Z " fill="#7E7EBF" transform="translate(254,472)"/>
<path d="M0 0 C4.0743356 0.84881992 5.54405875 2.30225596 8 5.625 C8.625 8.625 8.625 8.625 8 11.625 C5.51397551 14.98844489 4.08574477 16.42557749 -0.0625 17.1875 C-3.74345769 16.48263576 -4.87000351 15.7016616 -7 12.625 C-8.0625 9.1875 -8.0625 9.1875 -8 5.625 C-5.59686932 2.20235933 -4.11289267 0.85685264 0 0 Z " fill="#FEE888" transform="translate(440,313.375)"/>
<path d="M0 0 C2.4375 1.5625 2.4375 1.5625 4 4 C4.55802097 7.90614682 4.58392818 10.05111671 2.5 13.4375 C-0.53037069 15.33148168 -2.55830934 15.64334247 -6.08984375 15.4453125 C-8 15 -8 15 -10.5625 12.9375 C-12.44610971 9.08838451 -12.207644 7.07579849 -11 3 C-7.92160879 -0.67038952 -4.56677188 -0.57084649 0 0 Z " fill="#FEE887" transform="translate(341,337)"/>
</svg>
